<svg width="407" height="463" viewBox="0 0 407 463" fill="none" xmlns="http://www.w3.org/2000/svg">
<g clip-path="url(#clip0_122_470)">
<path d="M27.2755 173.028C34.1272 163.275 41.8234 154.143 50.2749 145.74L190.601 5.34445C194.021 1.92572 198.658 0.00537109 203.493 0.00537109C208.328 0.00537109 212.965 1.92572 216.385 5.34445L356.725 145.74C365.173 154.142 372.869 163.268 379.725 173.014C464.534 294.648 335.26 428.278 213.288 352.268C210.351 350.429 206.957 349.455 203.493 349.455C200.029 349.455 196.635 350.429 193.698 352.268C71.7259 428.264 -57.5765 294.648 27.2755 173.028Z" fill="#E8E8E8"/>
<path d="M278.692 455.751C278.694 454.448 278.344 453.168 277.679 452.047C277.013 450.927 276.058 450.006 274.913 449.384C259.585 440.963 245.999 429.7 234.881 416.197C230.13 410.388 225.733 404.299 221.712 397.962C220.632 396.285 219.567 394.579 218.53 392.845C217.266 390.756 216.044 388.581 214.851 386.449C213.871 384.664 212.433 383.172 210.685 382.128C208.937 381.084 206.942 380.525 204.906 380.508C204.455 380.513 204.004 380.546 203.557 380.608C203.11 380.546 202.659 380.513 202.207 380.508C200.171 380.525 198.177 381.084 196.429 382.128C194.681 383.172 193.243 384.664 192.263 386.449C191.07 388.61 189.848 390.713 188.584 392.845C187.547 394.579 186.481 396.285 185.402 397.962C181.381 404.303 176.984 410.397 172.233 416.211C161.088 429.718 147.472 440.976 132.115 449.384C130.97 450.006 130.015 450.927 129.35 452.047C128.685 453.168 128.334 454.448 128.336 455.751C128.336 455.837 128.336 455.922 128.336 456.007C128.329 456.14 128.329 456.273 128.336 456.405C128.338 457.273 128.511 458.132 128.845 458.933C129.178 459.734 129.667 460.462 130.281 461.074C130.896 461.687 131.625 462.172 132.427 462.502C133.23 462.833 134.089 463.002 134.956 463H272.129C273.878 463 275.556 462.306 276.795 461.069C278.033 459.833 278.731 458.156 278.735 456.405C278.742 456.273 278.742 456.14 278.735 456.007C278.735 455.922 278.735 455.837 278.735 455.751H278.692Z" fill="#E8E8E8"/>
</g>
<defs>
<clipPath id="clip0_122_470">
<rect width="407" height="463" fill="white"/>
</clipPath>
</defs>
</svg>
