<svg width="462" height="527" viewBox="0 0 462 527" fill="none" xmlns="http://www.w3.org/2000/svg">
<path d="M30.9593 196.94C38.7369 185.838 47.4731 175.444 57.0668 165.879L216.356 6.0771C220.238 2.1858 225.502 0 230.99 0C236.478 0 241.742 2.1858 245.624 6.0771L404.929 165.879C414.519 175.443 423.255 185.831 431.037 196.924C527.307 335.371 380.564 487.473 242.109 400.955C238.775 398.863 234.922 397.753 230.99 397.753C227.058 397.753 223.205 398.863 219.871 400.955C81.4165 487.456 -65.3592 335.371 30.9593 196.94Z" fill="#8D8D8E"/>
<path d="M316.351 518.744C316.353 517.26 315.956 515.803 315.201 514.528C314.446 513.252 313.361 512.205 312.062 511.496C294.662 501.911 279.241 489.092 266.62 473.722C261.227 467.11 256.235 460.179 251.671 452.966C250.446 451.057 249.236 449.116 248.059 447.142C246.624 444.764 245.237 442.289 243.882 439.862C242.77 437.83 241.138 436.132 239.154 434.944C237.169 433.755 234.905 433.118 232.594 433.1C232.082 433.105 231.57 433.143 231.063 433.213C230.555 433.143 230.043 433.105 229.531 433.1C227.22 433.118 224.956 433.755 222.971 434.944C220.987 436.132 219.355 437.83 218.243 439.862C216.888 442.321 215.501 444.715 214.066 447.142C212.889 449.116 211.679 451.057 210.454 452.966C205.89 460.184 200.899 467.121 195.505 473.738C182.854 489.112 167.399 501.926 149.967 511.496C148.667 512.205 147.583 513.252 146.828 514.528C146.072 515.803 145.675 517.26 145.677 518.744C145.677 518.841 145.677 518.938 145.677 519.035C145.669 519.186 145.669 519.337 145.677 519.488C145.679 520.476 145.875 521.454 146.254 522.366C146.633 523.277 147.187 524.105 147.885 524.803C148.583 525.5 149.41 526.052 150.321 526.428C151.232 526.804 152.207 526.997 153.192 526.994H308.901C310.887 526.994 312.792 526.204 314.198 524.797C315.603 523.39 316.395 521.48 316.4 519.488C316.408 519.337 316.408 519.186 316.4 519.035C316.4 518.938 316.4 518.841 316.4 518.744H316.351Z" fill="#8D8D8E"/>
</svg>
