<svg width="361" height="411" viewBox="0 0 361 411" fill="none" xmlns="http://www.w3.org/2000/svg">
<path d="M24.1912 153.591C30.2685 144.933 37.0948 136.827 44.5911 129.367L169.057 4.73944C172.091 1.70468 176.204 0 180.492 0C184.78 0 188.893 1.70468 191.927 4.73944L316.406 129.367C323.899 136.825 330.725 144.927 336.806 153.578C412.03 261.551 297.367 380.173 189.18 312.699C186.575 311.068 183.565 310.202 180.492 310.202C177.42 310.202 174.409 311.068 171.804 312.699C63.6177 380.16 -51.0707 261.551 24.1912 153.591Z" fill="#1D1D1B"/>
<path d="M247.192 404.561C247.194 403.404 246.883 402.268 246.293 401.273C245.703 400.278 244.856 399.461 243.84 398.909C230.245 391.433 218.194 381.436 208.333 369.449C204.119 364.292 200.218 358.887 196.652 353.262C195.694 351.773 194.749 350.259 193.83 348.72C192.708 346.865 191.625 344.935 190.566 343.042C189.697 341.457 188.421 340.133 186.871 339.206C185.321 338.279 183.552 337.783 181.746 337.768C181.345 337.772 180.946 337.802 180.549 337.857C180.152 337.802 179.752 337.772 179.352 337.768C177.546 337.783 175.777 338.279 174.227 339.206C172.676 340.133 171.401 341.457 170.532 343.042C169.473 344.96 168.389 346.827 167.268 348.72C166.348 350.259 165.403 351.773 164.446 353.262C160.88 358.891 156.979 364.301 152.765 369.461C142.88 381.451 130.803 391.445 117.182 398.909C116.166 399.461 115.319 400.278 114.729 401.273C114.139 402.268 113.828 403.404 113.83 404.561C113.83 404.637 113.83 404.712 113.83 404.788C113.824 404.906 113.824 405.024 113.83 405.141C113.832 405.912 113.985 406.674 114.281 407.385C114.577 408.097 115.01 408.742 115.555 409.286C116.1 409.83 116.747 410.26 117.459 410.554C118.17 410.847 118.932 410.997 119.702 410.995H241.371C242.922 410.995 244.411 410.379 245.509 409.281C246.608 408.184 247.227 406.695 247.23 405.141C247.236 405.024 247.236 404.906 247.23 404.788C247.23 404.712 247.23 404.637 247.23 404.561H247.192Z" fill="#1D1D1B"/>
</svg>
