<svg width="72" height="22" viewBox="0 0 72 22" fill="none" xmlns="http://www.w3.org/2000/svg">
<path d="M3.3842 14.5086H0L5.15653 0.195685H9.22633L14.3756 14.5086H10.9914L7.24978 3.46642H7.13308L3.3842 14.5086ZM3.17269 8.8827H11.1664V11.2449H3.17269V8.8827Z" fill="black"/>
<path d="M23.9356 4.31206C23.8772 3.7483 23.6268 3.31034 23.1843 2.99817C22.7419 2.68601 22.1414 2.52993 21.3828 2.52993C20.8674 2.52993 20.4322 2.59981 20.0773 2.73959C19.7223 2.87471 19.45 3.0634 19.2604 3.30568C19.0756 3.54796 18.9833 3.82285 18.9833 4.13035C18.9735 4.38661 19.0295 4.61025 19.151 4.80127C19.2774 4.9923 19.45 5.1577 19.6689 5.29747C19.8877 5.43259 20.1405 5.5514 20.4274 5.6539C20.7143 5.75174 21.0206 5.83561 21.3464 5.90549L22.6884 6.213C23.3399 6.35277 23.938 6.53914 24.4826 6.7721C25.0272 7.00506 25.4988 7.2916 25.8975 7.63171C26.2963 7.97183 26.605 8.37252 26.8238 8.83378C27.0475 9.29504 27.1618 9.82385 27.1666 10.4202C27.1618 11.2961 26.9284 12.0556 26.4664 12.6986C26.0094 13.3369 25.3481 13.8331 24.4826 14.1872C23.622 14.5366 22.5838 14.7113 21.3682 14.7113C20.1624 14.7113 19.1121 14.5343 18.2174 14.1802C17.3276 13.8261 16.6323 13.3019 16.1315 12.6077C15.6355 11.9088 15.3754 11.0446 15.3511 10.0149H18.4071C18.4411 10.4948 18.5845 10.8955 18.8374 11.2169C19.0951 11.5338 19.4379 11.7737 19.8658 11.9368C20.2985 12.0952 20.7872 12.1744 21.3318 12.1744C21.8666 12.1744 22.331 12.0999 22.7248 11.9508C23.1236 11.8017 23.4323 11.5943 23.6511 11.3288C23.8699 11.0632 23.9793 10.758 23.9793 10.4132C23.9793 10.0918 23.8797 9.82152 23.6803 9.60254C23.4858 9.38356 23.1989 9.19719 22.8197 9.04344C22.4453 8.88969 21.9858 8.74991 21.4412 8.62412L19.8147 8.23275C18.5554 7.93922 17.561 7.48029 16.8317 6.85596C16.1023 6.23164 15.7401 5.39066 15.7449 4.33302C15.7401 3.46642 15.9808 2.70931 16.467 2.06168C16.9581 1.41406 17.6315 0.908538 18.4873 0.545123C19.3431 0.181708 20.3155 0 21.4047 0C22.5133 0 23.4809 0.181708 24.3075 0.545123C25.139 0.908538 25.7857 1.41406 26.2476 2.06168C26.7096 2.70931 26.9478 3.45943 26.9624 4.31206H23.9356Z" fill="black"/>
<path d="M38.5172 0.195685H41.6753V9.49072C41.6753 10.5344 41.4151 11.4476 40.8949 12.2303C40.3795 13.0131 39.6574 13.6234 38.7287 14.0614C37.8 14.4947 36.7181 14.7113 35.4831 14.7113C34.2432 14.7113 33.1589 14.4947 32.2302 14.0614C31.3014 13.6234 30.5794 13.0131 30.064 12.2303C29.5486 11.4476 29.2909 10.5344 29.2909 9.49072V0.195685H32.449V9.23214C32.449 9.77726 32.5729 10.2618 32.8209 10.6858C33.0738 11.1098 33.4287 11.4429 33.8858 11.6852C34.3428 11.9275 34.8753 12.0486 35.4831 12.0486C36.0957 12.0486 36.6282 11.9275 37.0804 11.6852C37.5374 11.4429 37.8899 11.1098 38.1379 10.6858C38.3908 10.2618 38.5172 9.77726 38.5172 9.23214V0.195685Z" fill="black"/>
<path d="M44.2736 14.5086V0.195685H47.4317V6.50653H47.6286L53.004 0.195685H56.7893L51.2462 6.60437L56.855 14.5086H53.0769L48.9852 8.62412L47.4317 10.4412V14.5086H44.2736Z" fill="black"/>
<path d="M61.0086 14.5086H57.6244L62.781 0.195685H66.8508L72 14.5086H68.6158L64.8742 3.46642H64.7575L61.0086 14.5086ZM60.7971 8.8827H68.7908V11.2449H60.7971V8.8827Z" fill="black"/>
<path d="M9.24437 21.9983C8.91219 22.0073 8.58438 21.931 8.30239 21.779C8.05042 21.6396 7.86029 21.4308 7.76281 21.1864L8.30468 20.9019C8.36536 21.0758 8.49351 21.2263 8.66757 21.3281C8.84164 21.43 9.05098 21.4769 9.26038 21.461C9.44924 21.4731 9.63741 21.4307 9.79539 21.3405C9.85197 21.3042 9.89769 21.2568 9.92871 21.2021C9.95974 21.1475 9.97517 21.0872 9.97372 21.0264C9.97676 20.9645 9.96054 20.9032 9.92676 20.8486C9.89298 20.7941 9.84287 20.7483 9.78167 20.7162C9.56535 20.6133 9.33491 20.5343 9.09576 20.4811L8.65678 20.3468C8.52899 20.3036 8.4077 20.2472 8.29553 20.1789C8.17405 20.1103 8.07613 20.0148 8.01202 19.9023C7.94694 19.7784 7.91565 19.6433 7.92057 19.5072C7.91375 19.3744 7.94285 19.2421 8.00556 19.1207C8.06826 18.9993 8.16285 18.8922 8.28181 18.8079C8.52777 18.6342 8.83763 18.5424 9.1552 18.5492C9.44026 18.5443 9.7205 18.6131 9.96 18.7467C10.1912 18.8795 10.3737 19.0666 10.4859 19.286L9.95315 19.5507C9.89233 19.4102 9.78188 19.2897 9.63745 19.2064C9.49301 19.1231 9.3219 19.0811 9.14835 19.0865C8.99064 19.079 8.83477 19.1188 8.70708 19.1991C8.65413 19.2343 8.61161 19.2799 8.58299 19.3321C8.55438 19.3843 8.54049 19.4416 8.54246 19.4993C8.54064 19.5552 8.5552 19.6106 8.58478 19.6603C8.61436 19.7101 8.658 19.7525 8.71165 19.7838C8.90739 19.8855 9.1203 19.9601 9.34269 20.0051L9.944 20.2006C10.0448 20.2308 10.1396 20.2741 10.2252 20.329C10.2955 20.3813 10.362 20.4374 10.4241 20.4969C10.4936 20.5631 10.5444 20.6422 10.5727 20.7281C10.6034 20.8232 10.618 20.9217 10.6162 21.0204C10.6223 21.1566 10.5916 21.2921 10.5265 21.4163C10.4614 21.5404 10.3637 21.6497 10.2412 21.7355C9.95469 21.9211 9.60199 22.0141 9.24437 21.9983Z" fill="black"/>
<path d="M20.7745 18.6183C20.9486 18.6055 21.124 18.624 21.2894 18.6728C21.4548 18.7215 21.6067 18.7995 21.7355 18.9016C21.8642 19.0038 21.967 19.1279 22.0373 19.2661C22.1076 19.4044 22.1439 19.5538 22.1439 19.7048C22.1439 19.8558 22.1076 20.0052 22.0373 20.1434C21.967 20.2817 21.8642 20.4058 21.7355 20.508C21.6067 20.6101 21.4548 20.688 21.2894 20.7368C21.124 20.7856 20.9486 20.8041 20.7745 20.7913H19.9834V21.9291H19.3524V18.6104L20.7745 18.6183ZM20.7745 20.2856C20.8596 20.2875 20.9441 20.2741 21.0229 20.2462C21.1016 20.2183 21.1727 20.1765 21.2318 20.1236C21.3518 20.0107 21.4165 19.862 21.4124 19.7087C21.418 19.5553 21.3531 19.4061 21.2318 19.2939C21.1732 19.2403 21.1022 19.198 21.0234 19.1697C20.9446 19.1415 20.8598 19.1279 20.7745 19.1299H19.9834V20.2856H20.7745Z" fill="black"/>
<path d="M30.8208 18.6183H31.4518V21.937H30.8208V18.6183Z" fill="black"/>
<path d="M42.639 21.937L41.8273 20.7281H41.082V21.937H40.4509V18.6183H41.9874C42.1495 18.6178 42.3101 18.6449 42.46 18.6982C42.6099 18.7515 42.7462 18.8299 42.8609 18.9289C42.9756 19.0278 43.0666 19.1454 43.1286 19.2748C43.1905 19.4043 43.2223 19.543 43.222 19.6831C43.2266 19.8952 43.1521 20.103 43.0094 20.2757C42.8734 20.4471 42.6817 20.5798 42.4583 20.657L43.3317 21.9469L42.639 21.937ZM41.082 19.124V20.2322H41.9965C42.0768 20.2332 42.1565 20.2195 42.2302 20.1919C42.3039 20.1643 42.37 20.1235 42.424 20.0722C42.5365 19.9636 42.5987 19.8229 42.5987 19.6771C42.5987 19.5314 42.5365 19.3907 42.424 19.282C42.37 19.2307 42.3039 19.1899 42.2302 19.1623C42.1565 19.1348 42.0768 19.121 41.9965 19.122L41.082 19.124Z" fill="black"/>
<path d="M52.0451 18.6183H52.6761V21.937H52.0451V18.6183Z" fill="black"/>
<path d="M64.1719 18.6183V19.1398H63.0905V21.937H62.4594V19.1398H61.3734V18.6183H64.1719Z" fill="black"/>
</svg>
